<svg xmlns="http://www.w3.org/2000/svg" id="Layer_1" data-name="Layer 1" viewBox="0 0 1971.5 1393.99"><defs><style>.cls-1,.cls-2{fill:#fff;}.cls-2{font-size:55.16px;font-family:Arial-BoldMT, Arial;font-weight:700;letter-spacing:0.43em;}.cls-3{letter-spacing:0.42em;}</style></defs><path class="cls-1" d="M434.68,383.82C242.06,383.82,85.91,540,85.91,732.59s156.15,348.77,348.77,348.77S783.45,925.21,783.45,732.59,627.3,383.82,434.68,383.82ZM212.76,880.24,334.41,669.55l176.64,3.08L441.87,552.8l-27.34,47.27H374.46l67.41-116.65,129.88,225-217.51-3.79-81.39,141h377.5l22.56,34.68Z"></path><path class="cls-1" d="M993.63,500c-25.41,0-50.81,20-50.81,49.79s25.4,49.8,50.81,49.8c15.92,0,30.15-5.42,43.7-18.29v40c-11.52,10.16-28.46,17.61-50.48,17.61-50.81,0-88.07-40.65-88.07-89.09,0-48.09,37.26-89.08,88.07-89.08,22,0,39,7.45,50.48,17.61V518C1023.78,505.11,1009.55,500,993.63,500Z"></path><path class="cls-1" d="M1094.21,549.82c0-49.11,38.28-89.08,92.14-89.08,53.52,0,91.46,40,91.46,89.08s-37.94,89.09-91.46,89.09C1132.49,638.91,1094.21,598.94,1094.21,549.82Zm141.94,0c0-27.09-20.67-49.79-49.8-49.79-29.47,0-50.47,22.7-50.47,49.79s21,49.8,50.47,49.8C1215.48,599.62,1236.15,576.92,1236.15,549.82Z"></path><path class="cls-1" d="M1416.33,460.74c29.47,0,52.51,15.58,61.31,35.23V381.47h42V635.53H1480l-2.37-31.85c-8.8,19.65-31.84,35.23-61.31,35.23-49.11,0-85-40-85-89.09S1367.22,460.74,1416.33,460.74Zm7.12,138.88c29.13,0,49.79-22.7,49.79-49.8S1452.58,500,1423.45,500c-29.47,0-50.48,22.7-50.48,49.79S1394,599.62,1423.45,599.62Z"></path><path class="cls-1" d="M1757.08,562.7H1627.34c1,21,16.94,39.29,47.09,39.29,21.67,0,35.56-11.52,42.34-23.37l36.58,4.06c-5.08,23.37-31.84,56.23-79.26,56.23-52.84,0-88.41-40-88.41-90.1,0-47.76,33.87-88.07,85.7-88.07,52.84,0,85.7,42,85.7,91.12Zm-129.74-28.8h88.07c-1.35-19-18-36.24-44-36.24C1646,497.66,1628.36,514.26,1627.34,533.9Z"></path><path class="cls-1" d="M983.81,743c29.47,0,52.5,15.59,61.31,35.23l2.37-31.84h39.63v171.4h-39.63l-2.37-31.84c-8.81,19.64-31.84,35.23-61.31,35.23-49.12,0-85-40-85-89.09S934.69,743,983.81,743Zm7.11,138.89c29.13,0,49.79-22.7,49.79-49.8s-20.66-49.79-49.79-49.79c-29.47,0-50.47,22.69-50.47,49.79S961.45,881.88,990.92,881.88Z"></path><path class="cls-1" d="M1239.87,782.29c-25.41,0-50.81,20-50.81,49.79s25.4,49.8,50.81,49.8c15.92,0,30.15-5.43,43.69-18.3v40c-11.51,10.17-28.45,17.62-50.46,17.62-50.81,0-88.08-40.65-88.08-89.09,0-48.1,37.27-89.09,88.08-89.09,22,0,39,7.45,50.46,17.62v39.63C1270,787.37,1255.79,782.29,1239.87,782.29Z"></path><path class="cls-1" d="M1511.85,845H1382.12c1,21,16.93,39.3,47.08,39.3,21.68,0,35.57-11.52,42.34-23.38l36.58,4.07c-5.08,23.37-31.84,56.23-79.26,56.23-52.84,0-88.41-40-88.41-90.11,0-47.76,33.87-88.07,85.7-88.07,52.84,0,85.7,42,85.7,91.12Zm-129.73-28.79h88.07c-1.36-19-18-36.25-44-36.25C1400.75,779.91,1383.13,796.51,1382.12,816.16Z"></path><path class="cls-1" d="M1825.54,362.22V338.46h-8.88v-3.18H1838v3.18h-8.91v23.76Z"></path><path class="cls-1" d="M1841.56,362.22V335.28h5.37l6.37,19.07q.89,2.67,1.29,4c.3-1,.78-2.42,1.43-4.32l6.45-18.74h4.8v26.94h-3.44V339.67L1856,362.22h-3.21L1845,339.28v22.94Z"></path><path class="cls-1" d="M1844.1,390.84a41.49,41.49,0,1,1,41.49-41.48A41.53,41.53,0,0,1,1844.1,390.84Zm0-80.3a38.82,38.82,0,1,0,38.82,38.82A38.86,38.86,0,0,0,1844.1,310.54Z"></path><rect class="cls-1" x="903.4" y="984.88" width="858.4" height="4.7"></rect><circle class="cls-1" cx="1585.49" cy="901.52" r="19.65"></circle><text class="cls-2" transform="translate(899.47 1065.36)">IT SOLUTIONS LL<tspan class="cls-3" x="827.86" y="0">P</tspan></text></svg>